<svg width="32" height="32" viewBox="0 0 32 32" fill="none" xmlns="http://www.w3.org/2000/svg">
<g id="Group 5">
<path id="Fill 14" fill-rule="evenodd" clip-rule="evenodd" d="M24.0346 17.8102C23.7019 18.2558 23.1775 18.5173 22.6211 18.515H18.8694L19.9469 24.588C20.0879 25.2866 19.6411 25.9695 18.9436 26.1204C18.227 26.245 17.6481 25.5733 17.4261 24.3664C17.0326 22.2442 15.5584 20.5816 13.1596 19.5576C11.5538 18.8994 9.83954 18.5464 8.10449 18.515C7.7015 18.5133 7.37552 18.1879 7.37383 17.7856V10.8125C7.37552 10.4102 7.7015 10.0847 8.10449 10.083H8.85707C10.097 10.0825 11.2969 9.6493 12.2507 8.85812L13.2062 8.06414C13.7446 7.61804 14.4219 7.37396 15.1217 7.3734H19.4933C20.8253 7.37789 21.9955 8.25604 22.3704 9.53203L24.3207 16.2655C24.4753 16.7969 24.369 17.3698 24.0346 17.8108V17.8102ZM23.5985 9.17235C23.0634 7.35151 21.3936 6.09853 19.4927 6.0918H15.1211C14.1229 6.09236 13.1562 6.44138 12.3884 7.07825L11.4329 7.87223C10.709 8.47263 9.79738 8.80145 8.85651 8.80201H8.10393C6.99332 8.80313 6.09292 9.70205 6.0918 10.8108V17.7839C6.09292 18.8932 6.99332 19.7916 8.10393 19.7927C10.0998 19.7927 15.4387 20.6562 16.1676 24.5987C16.6504 27.2096 18.2905 27.4127 18.7817 27.4127C18.9104 27.4127 19.0391 27.4015 19.1662 27.379C20.5561 27.1024 21.4661 25.7624 21.2086 24.3709L20.3965 19.7921H22.6228C23.5816 19.796 24.4854 19.3455 25.0587 18.5779C25.6376 17.8153 25.8197 16.8238 25.5499 15.9052L23.5985 9.17235Z" fill="white"/>
</g>
</svg>
