<svg width="26" height="26" viewBox="0 0 26 26" fill="none" xmlns="http://www.w3.org/2000/svg">
<g id="Icon/Help">
<g id="path">
<g id="path_2">
<path id="Mask" fill-rule="evenodd" clip-rule="evenodd" d="M12.9827 23.7812C18.9563 23.7812 23.7988 18.9427 23.7988 12.974C23.7988 7.0053 18.9563 2.16672 12.9827 2.16672C7.00907 2.16672 2.16651 7.0053 2.16651 12.974C2.16651 18.9427 7.00907 23.7813 12.9827 23.7812ZM14.8748 18.2877C14.8748 19.3314 14.028 20.1775 12.9834 20.1775C11.9389 20.1775 11.0921 19.3314 11.0921 18.2877L11.0921 12.6159C11.0921 11.5722 11.9389 10.7261 12.9834 10.7261C14.028 10.7261 14.8748 11.5722 14.8748 12.6159L14.8748 18.2877ZM11.2369 6.58011C11.1893 6.69303 11.153 6.81041 11.1286 6.9305H11.1302C11.0046 7.54968 11.1979 8.19053 11.645 8.63725C12.0921 9.08397 12.7335 9.27713 13.3532 9.15168C13.4741 9.12766 13.5925 9.09247 13.7069 9.04656C13.8207 8.998 13.9299 8.93937 14.0332 8.87136C14.1365 8.80316 14.2325 8.72454 14.3198 8.63675C14.6742 8.28228 14.8733 7.80174 14.8733 7.3007C14.8734 7.17647 14.8617 7.0525 14.8382 6.9305C14.8126 6.81073 14.7764 6.69347 14.73 6.58011C14.6827 6.4658 14.624 6.35656 14.5546 6.2541C14.4869 6.14996 14.4082 6.05343 14.3198 5.96617C13.9652 5.61173 13.4842 5.41259 12.9827 5.41259C12.4811 5.41259 12.0001 5.61173 11.6455 5.96617C11.5585 6.05472 11.4799 6.15111 11.4107 6.2541C11.3418 6.3566 11.2836 6.46583 11.2369 6.58011Z" fill="white"/>
<mask id="mask0_1636_737" style="mask-type:luminance" maskUnits="userSpaceOnUse" x="2" y="2" width="22" height="22">
<path id="Mask_2" fill-rule="evenodd" clip-rule="evenodd" d="M12.9827 23.7812C18.9563 23.7812 23.7988 18.9427 23.7988 12.974C23.7988 7.0053 18.9563 2.16672 12.9827 2.16672C7.00907 2.16672 2.16651 7.0053 2.16651 12.974C2.16651 18.9427 7.00907 23.7813 12.9827 23.7812ZM14.8748 18.2877C14.8748 19.3314 14.028 20.1775 12.9834 20.1775C11.9389 20.1775 11.0921 19.3314 11.0921 18.2877L11.0921 12.6159C11.0921 11.5722 11.9389 10.7261 12.9834 10.7261C14.028 10.7261 14.8748 11.5722 14.8748 12.6159L14.8748 18.2877ZM11.2369 6.58011C11.1893 6.69303 11.153 6.81041 11.1286 6.9305H11.1302C11.0046 7.54968 11.1979 8.19053 11.645 8.63725C12.0921 9.08397 12.7335 9.27713 13.3532 9.15168C13.4741 9.12766 13.5925 9.09247 13.7069 9.04656C13.8207 8.998 13.9299 8.93937 14.0332 8.87136C14.1365 8.80316 14.2325 8.72454 14.3198 8.63675C14.6742 8.28228 14.8733 7.80174 14.8733 7.3007C14.8734 7.17647 14.8617 7.0525 14.8382 6.9305C14.8126 6.81073 14.7764 6.69347 14.73 6.58011C14.6827 6.4658 14.624 6.35656 14.5546 6.2541C14.4869 6.14996 14.4082 6.05343 14.3198 5.96617C13.9652 5.61173 13.4842 5.41259 12.9827 5.41259C12.4811 5.41259 12.0001 5.61173 11.6455 5.96617C11.5585 6.05472 11.4799 6.15111 11.4107 6.2541C11.3418 6.3566 11.2836 6.46583 11.2369 6.58011Z" fill="white"/>
</mask>
<g mask="url(#mask0_1636_737)">
<rect id="path_3" width="26" height="26" fill="#FFC400"/>
</g>
</g>
</g>
</g>
</svg>
