<svg width="32" height="32" viewBox="0 0 32 32" fill="none" xmlns="http://www.w3.org/2000/svg">
<g id="Group 5 Copy">
<path id="Fill 14" fill-rule="evenodd" clip-rule="evenodd" d="M8.18315 14.288C8.51588 13.8379 9.04027 13.5737 9.5967 13.576H13.3484L12.2709 7.44102C12.1298 6.7353 12.5767 6.04544 13.2742 5.89296C13.9908 5.76712 14.5697 6.44564 14.7917 7.66492C15.1851 9.80874 16.6594 11.4883 19.0582 12.5228C20.664 13.1877 22.3782 13.5443 24.1133 13.576C24.5163 13.5777 24.8423 13.9065 24.8439 14.3129V21.3571C24.8423 21.7635 24.5163 22.0923 24.1133 22.094H23.3607C22.1208 22.0946 20.9208 22.5322 19.9671 23.3314L19.0116 24.1335C18.4731 24.5842 17.7959 24.8307 17.0961 24.8313H12.7245C11.3924 24.8268 10.2223 23.9397 9.84737 22.6506L7.89706 15.8485C7.7425 15.3117 7.84873 14.7329 8.18315 14.2874V14.288ZM8.61929 23.014C9.15436 24.8534 10.8242 26.1192 12.7251 26.126H17.0967C18.0949 26.1254 19.0616 25.7728 19.8293 25.1295L20.7848 24.3274C21.5087 23.7208 22.4204 23.3887 23.3613 23.3881H24.1138C25.2245 23.387 26.1249 22.4789 26.126 21.3588V14.3146C26.1249 13.1939 25.2245 12.2864 24.1138 12.2853C22.118 12.2853 16.7791 11.4129 16.0501 7.43025C15.5673 4.79271 13.9273 4.58751 13.436 4.58751C13.3073 4.58751 13.1786 4.59885 13.0516 4.62153C11.6617 4.90098 10.7517 6.25461 11.0091 7.66039L11.8213 12.2859H9.59501C8.63616 12.2819 7.73238 12.7371 7.15909 13.5125C6.58018 14.2829 6.39808 15.2845 6.66786 16.2124L8.61929 23.014Z" fill="white"/>
</g>
</svg>
