<svg width="22" height="22" viewBox="0 0 22 22" fill="none" xmlns="http://www.w3.org/2000/svg">
<g id="search">
<path id="mask" fill-rule="evenodd" clip-rule="evenodd" d="M19.7403 3.19874C18.0567 1.24403 15.6293 0.0855276 13.0498 0.00564401C12.9425 0.00188134 12.8352 0 12.7279 0C10.2656 0.00122532 7.90385 0.976478 6.15877 2.71265C3.14316 5.72043 2.56713 10.3953 4.76249 14.0444C5.17564 14.7233 5.07317 15.5961 4.51401 16.1609L1.04874 19.6235C0.853211 19.8212 0.74558 20.0892 0.750139 20.3671C0.749585 20.6082 0.847488 20.839 1.02121 21.0063C1.39166 21.3387 1.9557 21.3301 2.31583 20.9865L5.8277 17.476C6.38033 16.9157 7.24464 16.8059 7.92 17.21C9.36842 18.0837 11.0283 18.5451 12.7201 18.5441C15.3939 18.5432 17.938 17.3922 19.7029 15.3849C22.7514 11.8994 22.7674 6.7028 19.7403 3.19874ZM18.3822 14.074C16.9711 15.7325 14.9026 16.6881 12.7244 16.6879C10.5467 16.6891 8.47827 15.7348 7.06657 14.0776C4.7318 11.3017 4.7318 7.25013 7.06657 4.47429C8.477 2.81552 10.5449 1.85915 12.723 1.85829C14.9009 1.85702 16.9696 2.81133 18.3815 4.46864C20.7191 7.24551 20.7194 11.3004 18.3822 14.0776V14.074Z" fill="white"/>
<mask id="mask0_1714_673" style="mask-type:luminance" maskUnits="userSpaceOnUse" x="0" y="0" width="22" height="22">
<path id="mask_2" fill-rule="evenodd" clip-rule="evenodd" d="M19.7403 3.19874C18.0567 1.24403 15.6293 0.0855276 13.0498 0.00564401C12.9425 0.00188134 12.8352 0 12.7279 0C10.2656 0.00122532 7.90385 0.976478 6.15877 2.71265C3.14316 5.72043 2.56713 10.3953 4.76249 14.0444C5.17564 14.7233 5.07317 15.5961 4.51401 16.1609L1.04874 19.6235C0.853211 19.8212 0.74558 20.0892 0.750139 20.3671C0.749585 20.6082 0.847488 20.839 1.02121 21.0063C1.39166 21.3387 1.9557 21.3301 2.31583 20.9865L5.8277 17.476C6.38033 16.9157 7.24464 16.8059 7.92 17.21C9.36842 18.0837 11.0283 18.5451 12.7201 18.5441C15.3939 18.5432 17.938 17.3922 19.7029 15.3849C22.7514 11.8994 22.7674 6.7028 19.7403 3.19874ZM18.3822 14.074C16.9711 15.7325 14.9026 16.6881 12.7244 16.6879C10.5467 16.6891 8.47827 15.7348 7.06657 14.0776C4.7318 11.3017 4.7318 7.25013 7.06657 4.47429C8.477 2.81552 10.5449 1.85915 12.723 1.85829C14.9009 1.85702 16.9696 2.81133 18.3815 4.46864C20.7191 7.24551 20.7194 11.3004 18.3822 14.0776V14.074Z" fill="white"/>
</mask>
<g mask="url(#mask0_1714_673)">
<path id="path" fill-rule="evenodd" clip-rule="evenodd" d="M27 25H-3V-5H27V25Z" fill="white"/>
</g>
</g>
</svg>
