<svg width="34" height="34" viewBox="0 0 34 34" fill="none" xmlns="http://www.w3.org/2000/svg">
<g id="Background">
<path id="Mask" fill-rule="evenodd" clip-rule="evenodd" d="M0.672128 20.3115C2.24733 28.0826 9.08136 33.6708 17.0167 33.6763C19.2482 33.6808 21.4577 33.2351 23.5127 32.366C31.9784 28.767 35.9322 19.0011 32.3519 10.5331C28.7717 2.06508 19.008 -1.91049 10.5241 1.6452C3.21624 4.73552 -0.903074 12.5403 0.672128 20.3115ZM7.66522 15.9607L21.8625 8.81722C22.0401 8.72575 22.2383 8.67739 22.4413 8.67635C22.8877 8.68167 23.2967 8.91708 23.5128 9.29297C23.7334 9.66159 23.7237 10.1175 23.4877 10.4771L20.1504 15.8086C19.6869 16.5468 19.6869 17.4716 20.1504 18.2098L23.4877 23.5421C23.7234 23.9015 23.733 24.357 23.5128 24.7254C23.3605 24.9997 23.1009 25.2042 22.7915 25.2936C22.482 25.3831 22.1483 25.3501 21.8642 25.202L7.66522 18.0593C7.2594 17.855 7.00505 17.4508 7.00505 17.01C7.00505 16.5692 7.2594 16.165 7.66522 15.9607Z" fill="#99C14D"/>
<mask id="mask0_1786_251" style="mask-type:luminance" maskUnits="userSpaceOnUse" x="0" y="0" width="34" height="34">
<path id="Mask_2" fill-rule="evenodd" clip-rule="evenodd" d="M0.672128 20.3115C2.24733 28.0826 9.08136 33.6708 17.0167 33.6763C19.2482 33.6808 21.4577 33.2351 23.5127 32.366C31.9784 28.767 35.9322 19.0011 32.3519 10.5331C28.7717 2.06508 19.008 -1.91049 10.5241 1.6452C3.21624 4.73552 -0.903074 12.5403 0.672128 20.3115ZM7.66522 15.9607L21.8625 8.81722C22.0401 8.72575 22.2383 8.67739 22.4413 8.67635C22.8877 8.68167 23.2967 8.91708 23.5128 9.29297C23.7334 9.66159 23.7237 10.1175 23.4877 10.4771L20.1504 15.8086C19.6869 16.5468 19.6869 17.4716 20.1504 18.2098L23.4877 23.5421C23.7234 23.9015 23.733 24.357 23.5128 24.7254C23.3605 24.9997 23.1009 25.2042 22.7915 25.2936C22.482 25.3831 22.1483 25.3501 21.8642 25.202L7.66522 18.0593C7.2594 17.855 7.00505 17.4508 7.00505 17.01C7.00505 16.5692 7.2594 16.165 7.66522 15.9607Z" fill="white"/>
</mask>
<g mask="url(#mask0_1786_251)">
<circle id="Background_2" cx="17" cy="17" r="20" fill="#666666"/>
</g>
</g>
</svg>
