<svg width="21" height="18" viewBox="0 0 21 18" fill="none" xmlns="http://www.w3.org/2000/svg">
<g id="Icon">
<path id="Vector" d="M20.4507 5.41837C20.4557 5.41343 20.4601 5.408 20.4646 5.40257L20.4883 5.3754C20.4917 5.37095 20.4947 5.36651 20.4981 5.36256C20.5016 5.35861 20.5154 5.34082 20.5233 5.32996C20.5233 5.32699 20.5273 5.32403 20.5298 5.32156C20.5386 5.30872 20.548 5.29587 20.5564 5.28303C20.5574 5.28183 20.5583 5.2805 20.5589 5.27908C20.6636 5.12199 20.7279 4.94145 20.7461 4.75352C20.7461 4.75352 20.7461 4.74808 20.7461 4.74561C20.7461 4.72931 20.7486 4.71301 20.7496 4.69622C20.7505 4.67942 20.7496 4.65769 20.7496 4.63793C20.7496 4.61817 20.7496 4.5994 20.7496 4.57964C20.7496 4.55989 20.7496 4.54704 20.7461 4.53025C20.7461 4.52728 20.7461 4.52482 20.7461 4.52185C20.7279 4.33393 20.6636 4.15341 20.5589 3.99629L20.5564 3.99233C20.548 3.97949 20.5386 3.96665 20.5298 3.9543L20.5233 3.94541C20.5154 3.93454 20.5065 3.92368 20.4981 3.9133C20.4897 3.90293 20.4917 3.90441 20.4883 3.90046L20.4646 3.8728L20.4507 3.85699C20.4423 3.84761 20.4334 3.83872 20.4245 3.82933L20.4122 3.81599L17.6841 1.08987C17.4664 0.87221 17.1711 0.749954 16.8632 0.75C16.5554 0.750046 16.2601 0.872391 16.0424 1.09012C15.8248 1.30785 15.7025 1.60313 15.7026 1.911C15.7026 2.21887 15.825 2.51411 16.0427 2.73177L16.7886 3.47764H16.6996C15.6849 3.47479 14.6797 3.67318 13.7421 4.06133C12.8046 4.44948 11.9533 5.01968 11.2375 5.73895L6.54498 10.4315C6.0443 10.9344 5.44887 11.333 4.79314 11.6043C4.13741 11.8756 3.4344 12.0142 2.72476 12.0121H1.66079C1.35293 12.0121 1.05768 12.1344 0.839987 12.3521C0.622297 12.5698 0.5 12.8651 0.5 13.1729C0.5 13.4808 0.622297 13.776 0.839987 13.9937C1.05768 14.2114 1.35293 14.3337 1.66079 14.3337H2.72476C3.7395 14.3366 4.74473 14.1381 5.68224 13.7498C6.61974 13.3614 7.47089 12.791 8.18639 12.0714L12.8789 7.37887C13.3795 6.87587 13.975 6.47716 14.6307 6.20584C15.2864 5.93452 15.9895 5.79598 16.6992 5.79822H16.7881L16.0422 6.54458C15.8301 6.76339 15.7125 7.05682 15.7149 7.36155C15.7173 7.66627 15.8394 7.95784 16.0549 8.17332C16.2703 8.3888 16.5619 8.5109 16.8666 8.51327C17.1714 8.51564 17.4648 8.39809 17.6836 8.18599L20.4117 5.45838L20.424 5.44505C20.4334 5.43665 20.4423 5.42776 20.4507 5.41837Z" fill="white"/>
<path id="Vector_2" d="M11.2373 12.0743C11.9529 12.7938 12.8042 13.3643 13.7417 13.7526C14.6793 14.1409 15.6846 14.3394 16.6994 14.3366H16.7883L16.0425 15.083C15.8303 15.3018 15.7128 15.5952 15.7152 15.8999C15.7175 16.2047 15.8396 16.4962 16.0551 16.7117C16.2706 16.9272 16.5622 17.0493 16.8669 17.0517C17.1716 17.054 17.465 16.9365 17.6839 16.7244L20.4119 13.9968C20.4391 13.9696 20.4648 13.941 20.4895 13.9113L20.4954 13.9034C20.5172 13.8762 20.5379 13.8486 20.5572 13.8194C20.5601 13.8155 20.5626 13.811 20.5651 13.8071C20.5834 13.7789 20.6001 13.7508 20.6145 13.7211L20.6214 13.7078C20.6362 13.6787 20.6505 13.6485 20.6634 13.6174C20.6649 13.6139 20.6662 13.6102 20.6673 13.6065C20.6802 13.5749 20.6915 13.5428 20.7014 13.5078C20.7014 13.5053 20.7014 13.5023 20.7014 13.4999C20.7108 13.4668 20.7192 13.4327 20.7261 13.3981C20.7261 13.3981 20.7261 13.3941 20.7261 13.3922C20.7325 13.3576 20.738 13.3225 20.7414 13.287V13.282C20.7449 13.2465 20.7468 13.2109 20.7468 13.1743C20.7468 13.1378 20.7468 13.1022 20.7414 13.0667V13.0617C20.738 13.0262 20.7325 12.9911 20.7261 12.9565C20.7261 12.9565 20.7261 12.9526 20.7261 12.9506C20.7192 12.916 20.7108 12.8824 20.7014 12.8488C20.7014 12.8464 20.7014 12.8434 20.7014 12.8409C20.6915 12.8078 20.6802 12.7757 20.6673 12.7421C20.6673 12.7387 20.6649 12.7352 20.6634 12.7313C20.6505 12.7006 20.6367 12.6705 20.6214 12.6409L20.6145 12.6275C20.5987 12.5984 20.5819 12.5697 20.5651 12.5416L20.5572 12.5292C20.5379 12.5006 20.5172 12.4724 20.4954 12.4453L20.4895 12.4374C20.4648 12.4077 20.4401 12.3791 20.4119 12.3519L17.6839 9.62431C17.4655 9.40664 17.1696 9.28465 16.8612 9.28516C16.5529 9.28567 16.2574 9.40864 16.0397 9.62702C15.8221 9.84541 15.7001 10.1413 15.7006 10.4496C15.7011 10.758 15.8241 11.0535 16.0425 11.2711L16.7883 12.017H16.6994C15.9898 12.0191 15.2867 11.8806 14.631 11.6092C13.9753 11.3379 13.3799 10.9393 12.8792 10.4364L11.8602 9.41685L10.2183 11.0587L11.2373 12.0743Z" fill="white"/>
<path id="Vector_3" d="M8.18639 5.73889C7.47082 5.01942 6.61966 4.44901 5.68217 4.06069C4.74468 3.67236 3.73949 3.47383 2.72476 3.47659H1.66079C1.35293 3.47659 1.05768 3.59889 0.839987 3.81658C0.622297 4.03427 0.5 4.32952 0.5 4.63738C0.5 4.94524 0.622297 5.24049 0.839987 5.45818C1.05768 5.67587 1.35293 5.79816 1.66079 5.79816H2.72476C3.43441 5.79597 4.13745 5.93455 4.79319 6.20586C5.44893 6.47718 6.04434 6.87585 6.54498 7.37881L7.56401 8.39783L9.2059 6.75594L8.18639 5.73889Z" fill="white"/>
</g>
</svg>
